<svg xmlns="http://www.w3.org/2000/svg" width="884" viewBox="0 0 884 429" font-family="'Fira Mono', Consolas, Menlo, Monaco, 'Courier New', monospace">
<defs><defs><pattern id="fd-hatch" width="6" height="6" patternTransform="rotate(45)" patternUnits="userSpaceOnUse"><rect class="fd-hatch-background" fill="#f5f7f7" width="6" height="6"/><line class="fd-hatch-lines" stroke="#b9c2cc" stroke-width="1.5" x1="0" y1="0" x2="0" y2="6"/></pattern></defs><marker id="arrowhead" markerWidth="8" markerHeight="8" refX="7" refY="4" orient="auto"><path d="M0,0 L8,4 L0,8 z" fill="#e07b39"/></marker></defs>
<rect width="884" height="429" fill="#ffffff"/>
<text x="16.0" y="28.0" font-family="'Fira Mono', Consolas, Menlo, Monaco, 'Courier New', monospace" font-size="13" font-weight="bold" fill="#666666" text-anchor="start">Valkey 8.1 — the chain becomes a bucket (PR 1186)</text>
<g transform="translate(16.00 108.00)"><rect class="fd-role-overhead" fill="#dde2e8" stroke="#30176e" stroke-width="1" x="0.0" y="0.0" width="4.0" height="44" rx="0"/>
<rect class="fd-role-overhead" fill="#dde2e8" stroke="#30176e" stroke-width="1" x="4.0" y="0.0" width="28.0" height="44" rx="0"/>
<rect class="fd-role-overhead" fill="#dde2e8" stroke="#30176e" stroke-width="1" x="32.0" y="0.0" width="32.0" height="44" rx="0"/>
<rect class="fd-role-overhead" fill="#dde2e8" stroke="#30176e" stroke-width="1" x="64.0" y="0.0" width="32.0" height="44" rx="0"/>
<rect class="fd-role-overhead" fill="#dde2e8" stroke="#30176e" stroke-width="1" x="96.0" y="0.0" width="32.0" height="44" rx="0"/>
<rect class="fd-role-overhead" fill="#dde2e8" stroke="#30176e" stroke-width="1" x="128.0" y="0.0" width="32.0" height="44" rx="0"/>
<rect class="fd-role-overhead" fill="#dde2e8" stroke="#30176e" stroke-width="1" x="160.0" y="0.0" width="32.0" height="44" rx="0"/>
<rect class="fd-role-overhead" fill="#dde2e8" stroke="#30176e" stroke-width="1" x="192.0" y="0.0" width="32.0" height="44" rx="0"/>
<rect class="fd-role-overhead" fill="#dde2e8" stroke="#30176e" stroke-width="1" x="224.0" y="0.0" width="32.0" height="44" rx="0"/></g>
<rect x="16.0" y="108.0" width="256.0" height="44.0" fill="none" stroke="#30176e" stroke-width="1.2"/>
<path d="M34.0,108.0 L34.0,105.0" stroke="#30176e" stroke-width="0.8" fill="none"/>
<text x="34.0" y="102.0" font-family="'Fira Mono', Consolas, Menlo, Monaco, 'Courier New', monospace" font-size="10.5" font-weight="normal" fill="#002a3a" text-anchor="middle">hashes</text>
<text x="16.0" y="184.0" font-family="'Fira Mono', Consolas, Menlo, Monaco, 'Courier New', monospace" font-size="13" font-weight="normal" fill="#666666" text-anchor="start">64 B / bucket</text>
<g transform="translate(592.00 108.00)"><rect class="fd-role-overhead" fill="#dde2e8" stroke="#30176e" stroke-width="1" x="0.0" y="0.0" width="4.0" height="44" rx="0"/>
<rect class="fd-role-overhead" fill="#dde2e8" stroke="#30176e" stroke-width="1" x="4.0" y="0.0" width="28.0" height="44" rx="0"/>
<rect class="fd-role-overhead" fill="#dde2e8" stroke="#30176e" stroke-width="1" x="32.0" y="0.0" width="32.0" height="44" rx="0"/>
<rect class="fd-role-overhead" fill="#dde2e8" stroke="#30176e" stroke-width="1" x="64.0" y="0.0" width="32.0" height="44" rx="0"/>
<rect class="fd-role-overhead" fill="#dde2e8" stroke="#30176e" stroke-width="1" x="96.0" y="0.0" width="32.0" height="44" rx="0"/>
<rect class="fd-role-overhead" fill="#dde2e8" stroke="#30176e" stroke-width="1" x="128.0" y="0.0" width="32.0" height="44" rx="0"/>
<rect class="fd-role-overhead" fill="#dde2e8" stroke="#30176e" stroke-width="1" x="160.0" y="0.0" width="32.0" height="44" rx="0"/>
<rect class="fd-role-overhead" fill="#dde2e8" stroke="#30176e" stroke-width="1" x="192.0" y="0.0" width="32.0" height="44" rx="0"/>
<rect class="fd-role-overhead" fill="#dde2e8" stroke="#30176e" stroke-width="1" x="224.0" y="0.0" width="32.0" height="44" rx="0"/></g>
<rect x="592.0" y="108.0" width="256.0" height="44.0" fill="none" stroke="#30176e" stroke-width="1.2"/>
<text x="848.0" y="184.0" font-family="'Fira Mono', Consolas, Menlo, Monaco, 'Courier New', monospace" font-size="13" font-weight="normal" fill="#666666" text-anchor="end">64 B / bucket</text>
<g transform="translate(306.00 108.00)"><rect class="fd-role-overhead" fill="#dde2e8" stroke="#30176e" stroke-width="1" x="0.0" y="0.0" width="32.0" height="44" rx="0"/>
<rect class="fd-role-overhead" fill="#dde2e8" stroke="#30176e" stroke-width="1" x="32.0" y="0.0" width="32.0" height="44" rx="0"/>
<rect class="fd-role-overhead" fill="#dde2e8" stroke="#30176e" stroke-width="1" x="64.0" y="0.0" width="32.0" height="44" rx="0"/>
<rect class="fd-role-overhead" fill="#dde2e8" stroke="#30176e" stroke-width="1" x="96.0" y="0.0" width="8.0" height="44" rx="0"/>
<rect class="fd-role-overhead" fill="#dde2e8" stroke="#30176e" stroke-width="1" x="104.0" y="0.0" width="64.0" height="44" rx="0"/>
<rect class="fd-role-overhead" fill="#dde2e8" stroke="#30176e" stroke-width="1" x="168.0" y="0.0" width="4.0" height="44" rx="0"/>
<rect class="fd-role-overhead" fill="#dde2e8" stroke="#30176e" stroke-width="1" x="172.0" y="0.0" width="12.0" height="44" rx="0"/>
<rect class="fd-role-overhead" fill="#dde2e8" stroke="#30176e" stroke-width="1" x="184.0" y="0.0" width="64.0" height="44" rx="0"/>
<rect class="fd-role-overhead" fill="#dde2e8" stroke="#30176e" stroke-width="1" x="248.0" y="0.0" width="4.0" height="44" rx="0"/></g>
<rect x="306.0" y="108.0" width="252.0" height="44.0" fill="none" stroke="#30176e" stroke-width="1.2"/>
<text x="322.0" y="133.2" font-family="'Fira Mono', Consolas, Menlo, Monaco, 'Courier New', monospace" font-size="10.5" font-weight="normal" fill="#3a4550" text-anchor="middle">robj</text>
<text x="354.0" y="132.3" font-family="'Fira Mono', Consolas, Menlo, Monaco, 'Courier New', monospace" font-size="8.0" font-weight="normal" fill="#3a4550" text-anchor="middle">*value</text>
<text x="386.0" y="132.3" font-family="'Fira Mono', Consolas, Menlo, Monaco, 'Courier New', monospace" font-size="8.0" font-weight="normal" fill="#3a4550" text-anchor="middle">expiry</text>
<text x="442.0" y="132.9" font-family="'Fira Mono', Consolas, Menlo, Monaco, 'Courier New', monospace" font-size="9.666666666666666" font-weight="normal" fill="#3a4550" text-anchor="middle">key (16 B)</text>
<text x="522.0" y="132.3" font-family="'Fira Mono', Consolas, Menlo, Monaco, 'Courier New', monospace" font-size="8.055555555555557" font-weight="normal" fill="#3a4550" text-anchor="middle">value (16 B)</text>
<g transform="translate(306.00 214.00)"><rect class="fd-role-overhead" fill="#dde2e8" stroke="#30176e" stroke-width="1" x="0.0" y="0.0" width="32.0" height="44" rx="0"/>
<rect class="fd-role-overhead" fill="#dde2e8" stroke="#30176e" stroke-width="1" x="32.0" y="0.0" width="32.0" height="44" rx="0"/>
<rect class="fd-role-overhead" fill="#dde2e8" stroke="#30176e" stroke-width="1" x="64.0" y="0.0" width="32.0" height="44" rx="0"/>
<rect class="fd-role-overhead" fill="#dde2e8" stroke="#30176e" stroke-width="1" x="96.0" y="0.0" width="8.0" height="44" rx="0"/>
<rect class="fd-role-overhead" fill="#dde2e8" stroke="#30176e" stroke-width="1" x="104.0" y="0.0" width="64.0" height="44" rx="0"/>
<rect class="fd-role-overhead" fill="#dde2e8" stroke="#30176e" stroke-width="1" x="168.0" y="0.0" width="4.0" height="44" rx="0"/>
<rect class="fd-role-overhead" fill="#dde2e8" stroke="#30176e" stroke-width="1" x="172.0" y="0.0" width="12.0" height="44" rx="0"/>
<rect class="fd-role-overhead" fill="#dde2e8" stroke="#30176e" stroke-width="1" x="184.0" y="0.0" width="64.0" height="44" rx="0"/>
<rect class="fd-role-overhead" fill="#dde2e8" stroke="#30176e" stroke-width="1" x="248.0" y="0.0" width="4.0" height="44" rx="0"/></g>
<rect x="306.0" y="214.0" width="252.0" height="44.0" fill="none" stroke="#30176e" stroke-width="1.2"/>
<text x="322.0" y="239.2" font-family="'Fira Mono', Consolas, Menlo, Monaco, 'Courier New', monospace" font-size="10.5" font-weight="normal" fill="#3a4550" text-anchor="middle">robj</text>
<text x="354.0" y="238.3" font-family="'Fira Mono', Consolas, Menlo, Monaco, 'Courier New', monospace" font-size="8.0" font-weight="normal" fill="#3a4550" text-anchor="middle">*value</text>
<text x="386.0" y="238.3" font-family="'Fira Mono', Consolas, Menlo, Monaco, 'Courier New', monospace" font-size="8.0" font-weight="normal" fill="#3a4550" text-anchor="middle">expiry</text>
<text x="442.0" y="238.9" font-family="'Fira Mono', Consolas, Menlo, Monaco, 'Courier New', monospace" font-size="9.666666666666666" font-weight="normal" fill="#3a4550" text-anchor="middle">key (16 B)</text>
<text x="522.0" y="238.3" font-family="'Fira Mono', Consolas, Menlo, Monaco, 'Courier New', monospace" font-size="8.055555555555557" font-weight="normal" fill="#3a4550" text-anchor="middle">value (16 B)</text>
<g transform="translate(306.00 320.00)"><rect class="fd-role-overhead" fill="#dde2e8" stroke="#30176e" stroke-width="1" x="0.0" y="0.0" width="32.0" height="44" rx="0"/>
<rect class="fd-role-overhead" fill="#dde2e8" stroke="#30176e" stroke-width="1" x="32.0" y="0.0" width="32.0" height="44" rx="0"/>
<rect class="fd-role-overhead" fill="#dde2e8" stroke="#30176e" stroke-width="1" x="64.0" y="0.0" width="32.0" height="44" rx="0"/>
<rect class="fd-role-overhead" fill="#dde2e8" stroke="#30176e" stroke-width="1" x="96.0" y="0.0" width="8.0" height="44" rx="0"/>
<rect class="fd-role-overhead" fill="#dde2e8" stroke="#30176e" stroke-width="1" x="104.0" y="0.0" width="64.0" height="44" rx="0"/>
<rect class="fd-role-overhead" fill="#dde2e8" stroke="#30176e" stroke-width="1" x="168.0" y="0.0" width="4.0" height="44" rx="0"/>
<rect class="fd-role-overhead" fill="#dde2e8" stroke="#30176e" stroke-width="1" x="172.0" y="0.0" width="12.0" height="44" rx="0"/>
<rect class="fd-role-overhead" fill="#dde2e8" stroke="#30176e" stroke-width="1" x="184.0" y="0.0" width="64.0" height="44" rx="0"/>
<rect class="fd-role-overhead" fill="#dde2e8" stroke="#30176e" stroke-width="1" x="248.0" y="0.0" width="4.0" height="44" rx="0"/></g>
<rect x="306.0" y="320.0" width="252.0" height="44.0" fill="none" stroke="#30176e" stroke-width="1.2"/>
<text x="322.0" y="345.2" font-family="'Fira Mono', Consolas, Menlo, Monaco, 'Courier New', monospace" font-size="10.5" font-weight="normal" fill="#3a4550" text-anchor="middle">robj</text>
<text x="354.0" y="344.3" font-family="'Fira Mono', Consolas, Menlo, Monaco, 'Courier New', monospace" font-size="8.0" font-weight="normal" fill="#3a4550" text-anchor="middle">*value</text>
<text x="386.0" y="344.3" font-family="'Fira Mono', Consolas, Menlo, Monaco, 'Courier New', monospace" font-size="8.0" font-weight="normal" fill="#3a4550" text-anchor="middle">expiry</text>
<text x="442.0" y="344.9" font-family="'Fira Mono', Consolas, Menlo, Monaco, 'Courier New', monospace" font-size="9.666666666666666" font-weight="normal" fill="#3a4550" text-anchor="middle">key (16 B)</text>
<text x="522.0" y="344.3" font-family="'Fira Mono', Consolas, Menlo, Monaco, 'Courier New', monospace" font-size="8.055555555555557" font-weight="normal" fill="#3a4550" text-anchor="middle">value (16 B)</text>
<text x="432.0" y="396.0" font-family="'Fira Mono', Consolas, Menlo, Monaco, 'Courier New', monospace" font-size="13" font-weight="normal" fill="#666666" text-anchor="middle">63 B</text>
<path d="M256.0,108.0 L256.0,88.0 L280.0,88.0 L280.0,130.0 L304.0,130.0" stroke="#e07b39" stroke-width="2" fill="none"/>
<polygon points="304.0,130.0 296.0,126.0 296.0,134.0" fill="#e07b39"/>
<path d="M640.0,108.0 L640.0,88.0 L584.0,88.0 L584.0,130.0 L560.0,130.0" stroke="#e07b39" stroke-width="2" fill="none"/>
<polygon points="560.0,130.0 568.0,126.0 568.0,134.0" fill="#e07b39"/>
<path d="M224.0,152.0 L224.0,236.0 L304.0,236.0" stroke="#e07b39" stroke-width="2" fill="none"/>
<polygon points="304.0,236.0 296.0,232.0 296.0,240.0" fill="#e07b39"/>
<path d="M192.0,152.0 L192.0,342.0 L304.0,342.0" stroke="#e07b39" stroke-width="2" fill="none"/>
<polygon points="304.0,342.0 296.0,338.0 296.0,346.0" fill="#e07b39"/>
<path d="M672.0,152.0 L672.0,236.0 L560.0,236.0" stroke="#e07b39" stroke-width="2" fill="none"/>
<polygon points="560.0,236.0 568.0,232.0 568.0,240.0" fill="#e07b39"/>
<path d="M704.0,152.0 L704.0,342.0 L560.0,342.0" stroke="#e07b39" stroke-width="2" fill="none"/>
<polygon points="560.0,342.0 568.0,338.0 568.0,346.0" fill="#e07b39"/>
<text x="16.0" y="64.0" font-family="'Fira Mono', Consolas, Menlo, Monaco, 'Courier New', monospace" font-size="12.5" font-weight="normal" fill="#666666" text-anchor="start">keyspace hashtable</text>
<text x="306.0" y="64.0" font-family="'Fira Mono', Consolas, Menlo, Monaco, 'Courier New', monospace" font-size="12.5" font-weight="normal" fill="#666666" text-anchor="start">object</text>
<text x="592.0" y="64.0" font-family="'Fira Mono', Consolas, Menlo, Monaco, 'Courier New', monospace" font-size="12.5" font-weight="normal" fill="#666666" text-anchor="start">expires hashtable</text>
</svg>